<svg xmlns="http://www.w3.org/2000/svg" xmlns:xlink="http://www.w3.org/1999/xlink" width="100%" height="100%" viewBox="0 0 300 300" xmlns:v="https://vecta.io/nano"><defs><path d="M5.482 31.32A18.27 18.27 0 0 1 .109 18.358 18.34 18.34 0 0 1 18.443.024c10.126 0 18.34 8.208 18.34 18.334h-10.74a7.6 7.6 0 0 0-7.599-7.593c-4.194 0-7.593 3.4-7.593 7.593a7.57 7.57 0 0 0 2.22 5.363h.005c1.375 1.38 2.52 1.78 5.368 2.23h0c5.066.527 9.648 2.054 12.966 5.372h0a18.27 18.27 0 0 1 5.373 12.962c0 10.126-8.213 18.34-18.34 18.34A18.34 18.34 0 0 1 .11 44.286h10.74a7.6 7.6 0 0 0 7.593 7.598c4.195 0 7.6-3.404 7.6-7.598 0-2.095-.85-3.988-2.22-5.363h-.005c-1.375-1.375-3.348-1.85-5.373-2.226v-.005c-4.9-.753-9.643-2.054-12.96-5.373h0zM73.452.024l-12.97 62.6h-10.74L36.782.024h10.74l7.6 36.663 7.6-36.663h10.74zm18.34 25.928h18.334l.005 18.334c0 10.127-8.213 18.34-18.34 18.34s-18.334-8.213-18.334-18.34h0l-.005-25.927A18.34 18.34 0 0 1 91.792.025a18.34 18.34 0 0 1 18.334 18.334h-10.74a7.6 7.6 0 0 0-7.593-7.594 7.6 7.6 0 0 0-7.594 7.594v25.927c0 4.195 3.4 7.594 7.594 7.594a7.6 7.6 0 0 0 7.593-7.589v-7.593h-7.593V25.952z" transform="matrix(2 0 0 2 40 158)" id="A" fill="#fff"/></defs><path id="B" fill="#000" d="M8.5 150h283v100c0 23.5-18 41.5-41.5 41.5H50c-23.5 0-41.5-18-41.5-41.5z"/><g stroke="#000"><g id="C" transform="translate(150 150)"><path id="D" fill="#ffb13b" d="M-84.15-15.85a22.417 22.417 0 1 0 0 31.703H84.15a22.417 22.417 0 1 0 0-31.703z" stroke-width="38"/><g stroke-width="38"><use xlink:href="#D" transform="rotate(45)"/><use xlink:href="#D" transform="rotate(90)"/><use xlink:href="#D" transform="rotate(135)"/></g></g></g><use xlink:href="#C"/><use xlink:href="#B" opacity=".85"/><use xlink:href="#A"/></svg>
